# xmcd CD database file
#
# Track frame offsets:
#	150
#	25270
#	42125
#
# Disc length: 893 seconds
#
# Revision: 0
# Processed by: cddbd v1.5PL3 Copyright (c) Steve Scherf et al.
# Submitted via: CDex 1.51
#
DISCID=1a037b03
DTITLE=EXILE - Eternal...
DYEAR=2003
DGENRE=JPop
TTITLE0=Eternal...
TTITLE1=Eternal.../Acoustic version
TTITLE2=Eternal.../Instrumental
EXTD=YEAR: 2003
EXTT0=
EXTT1=
EXTT2=
PLAYORDER=
